<svg xmlns="http://www.w3.org/2000/svg" xmlns:xlink="http://www.w3.org/1999/xlink" viewBox="0 0 311.84 279.2"><defs><style>.cls-1{isolation:isolate;}.cls-2{opacity:0;fill:url(#linear-gradient);}.cls-3{fill:#e9e9ff;}.cls-4{fill:#ef5656;}.cls-5{fill:#e5a3a3;}.cls-6{fill:#e26060;}.cls-7{fill:#5c5c7f;opacity:0.2;mix-blend-mode:multiply;}.cls-8{fill:#fff;}</style><linearGradient id="linear-gradient" x1="45.32" y1="66.4" x2="676.68" y2="484.26" gradientUnits="userSpaceOnUse"><stop offset="0" stop-color="#2d2c33"/><stop offset="1" stop-color="#54535b"/></linearGradient></defs><title>18</title><g class="cls-1"><g id="Слой_2" data-name="Слой 2"><g id="body"><g id="_18" data-name="18"><rect class="cls-2" width="311.84" height="279.2"/><path id="_Контур_" data-name="&lt;Контур&gt;" class="cls-3" d="M80,239.11l60.91,40.09H304.35l7-4.6c.6-.4.67-1,.14-1.36L169.76,180a2,2,0,0,0-2.06.1l-87.54,57.7C79.55,238.15,79.49,238.76,80,239.11Z"/><polygon id="_Контур_2" data-name="&lt;Контур&gt;" class="cls-3" points="0 213.96 30.37 193.94 78.29 225.97 47.97 245.54 0 213.96"/><g id="_Группа_" data-name="&lt;Группа&gt;"><g id="_Группа_2" data-name="&lt;Группа&gt;"><path id="_Контур_3" data-name="&lt;Контур&gt;" class="cls-4" d="M218,243.14l-30-19.72-3.95-8.34-7.9.54L95.76,162.69c-.73-.48-.64-1.32.21-1.87l76.86-50.69a2.82,2.82,0,0,1,2.84-.13l122.21,80.44c.73.49.64,1.33-.21,1.88L220.81,243A2.8,2.8,0,0,1,218,243.14Z"/><path id="_Контур_4" data-name="&lt;Контур&gt;" class="cls-5" d="M218.68,240.28l-28.16-18.52-4.35-7.16-7.49-.65-78.63-51.76c-.44-.29-.38-.8.13-1.14l73.27-48.29a1.69,1.69,0,0,1,1.72-.08l118.62,78.08c.44.29.39.8-.12,1.14L220.4,240.19A1.7,1.7,0,0,1,218.68,240.28Z"/></g><g id="_Группа_3" data-name="&lt;Группа&gt;"><path id="_Контур_5" data-name="&lt;Контур&gt;" class="cls-5" d="M267.13,170.19A6,6,0,0,1,265,168c-.8-1.33-1.17-2.58-2.86-3.77-1.46-1-1.83-1.26-3-.67s-2.9-.52-3-.6l-80,52.7s1.67.92,2.81.33,3.83-1.24,5.29-.22c1.68,1.18,1.56,2.73,2.36,4.07s0,2.72.7,3.17l.69.45L268,170.74Z"/><g id="_Группа_4" data-name="&lt;Группа&gt;"><path id="_Контур_6" data-name="&lt;Контур&gt;" class="cls-6" d="M189.84,221.31a5.91,5.91,0,0,1-2.16-2.22c-.8-1.34-.66-3.11-2.35-4.29a3.1,3.1,0,0,0-3.64-.32c-1,.52-2.64-.33-3-.53l-2.53,1.67s1.87,1.1,3,.51a3.13,3.13,0,0,1,3.65.33c1.69,1.18,1.54,2.95,2.35,4.28a5.94,5.94,0,0,0,2.15,2.23l.69.45,2.52-1.66Z"/></g><g id="_Группа_5" data-name="&lt;Группа&gt;"><path id="_Контур_7" data-name="&lt;Контур&gt;" class="cls-6" d="M267.26,170.28a5.9,5.9,0,0,1-2.15-2.22c-.81-1.34-.66-3.11-2.35-4.29a3.11,3.11,0,0,0-3.65-.32c-1,.52-2.63-.33-3-.53l-2.31,1.52s1.87,1.1,3,.52a3.11,3.11,0,0,1,3.65.32c1.69,1.18,1.54,2.95,2.35,4.29a5.9,5.9,0,0,0,2.15,2.22l.69.45,2.3-1.51Z"/></g></g><path id="_Контур_8" data-name="&lt;Контур&gt;" class="cls-7" d="M266.14,169.49v-.15a7,7,0,0,1-1-1.33c-.73-1.23-.68-2.81-2-4h0l-80.33,52.38c1.68,1.18,1.54,3,2.34,4.28a7.72,7.72,0,0,0,.86,1.18Z"/><g id="_Группа_6" data-name="&lt;Группа&gt;"><path id="_Составной_контур_" data-name="&lt;Составной контур&gt;" class="cls-8" d="M232.19,220.9a1.68,1.68,0,0,1-.95-.28L221.19,214a1.48,1.48,0,0,1-.67-1.25,1.5,1.5,0,0,1,.67-1.25l3.74-2.47a1.71,1.71,0,0,1,.92-.27l5.07-.06a1.66,1.66,0,0,1,1,.27l7.57,5a1.5,1.5,0,0,1,0,2.5l-6.33,4.17A1.67,1.67,0,0,1,232.19,220.9Zm-9.1-8.16,9.1,6s0,0,0,0l5.34-3.52-6.62-4.36-5.07.08Z"/></g></g></g></g></g></g></svg>