<?xml version="1.0" encoding="UTF-8"?> <svg xmlns="http://www.w3.org/2000/svg" xmlns:xlink="http://www.w3.org/1999/xlink" width="198.444" height="50.999" viewBox="0 0 198.444 50.999"><defs><linearGradient id="a" x1="0.852" y1="0.852" x2="0.148" y2="0.148" gradientUnits="objectBoundingBox"><stop offset="0" stop-color="#e13510"></stop><stop offset="1" stop-color="#ef7115"></stop></linearGradient><linearGradient id="b" x1="0.651" y1="0.734" x2="0.156" y2="0.207" gradientUnits="objectBoundingBox"><stop offset="0" stop-color="#32912f"></stop><stop offset="1" stop-color="#6fac43"></stop></linearGradient></defs><g transform="translate(-63.441 -226.92)"><g transform="translate(63.441 226.92)"><path d="M183.413,261.893V239.308H173.128v.763h3.646v21.822h-7.291V246.547a7.838,7.838,0,0,0-1.986-5.66,7.375,7.375,0,0,0-5.577-2.068,9.964,9.964,0,0,0-4.083.734,9.537,9.537,0,0,0-2.667,1.715,8.01,8.01,0,0,0-1.577,1.986q-.545,1.007-.761,1.5h-.109v-5.443H142.6v.763h3.594v21.822h-7.24V239.308H128.667v.763h3.646v21.822H122.3V240.071h3.646v-.763H122.3v-7.2a10.119,10.119,0,0,1,.109-1.522,4.016,4.016,0,0,1,.409-1.279,2.17,2.17,0,0,1,.87-.9c.381-.217,1.009-.6,4.979-.6v-.763l-5.429,0a11.565,11.565,0,0,0-4.338.652,5.366,5.366,0,0,0-2.286,1.632,4.138,4.138,0,0,0-.844,2.122c-.074.761-.109,1.47-.109,2.122v28.317h-6.385V246.547a7.828,7.828,0,0,0-1.986-5.66,7.376,7.376,0,0,0-5.579-2.068,9.969,9.969,0,0,0-4.081.734,9.537,9.537,0,0,0-2.667,1.715,8,8,0,0,0-1.577,1.986q-.545,1.007-.763,1.5h-.107v-5.443H82.393v.763h3.594v21.822H78.747V239.308H68.462v.763h3.646v21.822H68.462v.761H96.054v-.761h-3.43V250.247a15.489,15.489,0,0,1,.546-4.354,10.217,10.217,0,0,1,1.442-3.1,6.013,6.013,0,0,1,2.1-1.878,5.342,5.342,0,0,1,2.5-.625,3.15,3.15,0,0,1,2.5,1.06,5.017,5.017,0,0,1,.927,3.348v17.2H99.264v.761h56.994v-.761H152.83V250.247a15.511,15.511,0,0,1,.544-4.354,10.228,10.228,0,0,1,1.442-3.1,6.013,6.013,0,0,1,2.1-1.878,5.335,5.335,0,0,1,2.5-.625,3.162,3.162,0,0,1,2.5,1.06,5.032,5.032,0,0,1,.924,3.348v17.2h-3.374v.761h27.589v-.761Z" transform="translate(-66.198 -226.989)" fill="#161615"></path><path d="M96.6,228.188a3.808,3.808,0,1,1-1.144,2.721A3.71,3.71,0,0,1,96.6,228.188Z" transform="translate(-81.016 -226.989)" fill="url(#a)"></path><path d="M209.987,228.188a3.813,3.813,0,1,1-1.142,2.721A3.718,3.718,0,0,1,209.987,228.188Z" transform="translate(-143.273 -226.989)" fill="#161615"></path><path d="M308.578,228.188a3.813,3.813,0,1,1-1.142,2.721A3.714,3.714,0,0,1,308.578,228.188Z" transform="translate(-197.403 -226.989)" fill="#161615"></path><path d="M374.342,228.062a3.813,3.813,0,1,1-1.142,2.721A3.72,3.72,0,0,1,374.342,228.062Z" transform="translate(-233.51 -226.92)" fill="#161615"></path><path d="M409.405,254.237V255h-3.917l6.693,15.072L418.114,255h-4.189v-.763h7.617V255h-2.5l-9.633,24.052h-.435L398.142,255H395.2v-.763Z" transform="translate(-245.59 -241.918)" fill="#161615"></path><path d="M458.946,265.32q0,1.96.163,3.947a11.084,11.084,0,0,0,.87,3.589,6.61,6.61,0,0,0,2.069,2.641,6.191,6.191,0,0,0,3.808,1.033,7.6,7.6,0,0,0,3.674-.816,9.039,9.039,0,0,0,2.447-1.88,8.184,8.184,0,0,0,1.416-2.092,5.926,5.926,0,0,0,.518-1.525l.762.272a9.646,9.646,0,0,1-.924,2.2,8.36,8.36,0,0,1-1.8,2.177,9.827,9.827,0,0,1-2.831,1.688,10.927,10.927,0,0,1-4.081.679,16.1,16.1,0,0,1-5.279-.844,12.6,12.6,0,0,1-4.272-2.449,11.262,11.262,0,0,1-2.856-3.916,12.734,12.734,0,0,1-1.033-5.252,11.274,11.274,0,0,1,.979-4.571,12.815,12.815,0,0,1,2.693-3.946,13.8,13.8,0,0,1,4.027-2.776,11.807,11.807,0,0,1,4.981-1.061,12.663,12.663,0,0,1,3.809.6,10.18,10.18,0,0,1,3.429,1.85,9.631,9.631,0,0,1,2.5,3.238,10.648,10.648,0,0,1,.981,4.762H458.946Zm8.707-6.856c0-.4-.019-.888-.054-1.469a6.041,6.041,0,0,0-.382-1.741,3.384,3.384,0,0,0-1.062-1.47,3.135,3.135,0,0,0-2.04-.6,4.239,4.239,0,0,0-2.856.871,5.234,5.234,0,0,0-1.5,2.2,11.119,11.119,0,0,0-.624,2.884q-.137,1.552-.191,2.966h8.707Z" transform="translate(-276.555 -240.922)" fill="#161615"></path><g transform="translate(0 16.075)"><path d="M78.624,262.565q-1.746,2.775-3.428,5.387t-2.993,4.87q-1.308,2.259-2.1,4a7.226,7.226,0,0,0-.787,2.775,2.693,2.693,0,0,0,.272,1.277,1,1,0,0,0,.979.518,4.582,4.582,0,0,0,2.369-.79,18.587,18.587,0,0,0,2.639-2.013,33.539,33.539,0,0,0,2.722-2.777q1.357-1.55,2.556-3.047t2.152-2.829q.95-1.333,1.551-2.149l.433.163q-1.3,1.85-3.263,4.49a50.19,50.19,0,0,1-4.41,5.144,26.208,26.208,0,0,1-4.625,3.889,8.726,8.726,0,0,1-4.736,1.336,4.3,4.3,0,0,1-3.374-1.279,5.169,5.169,0,0,1-1.142-3.568,13.137,13.137,0,0,1,2.095-6.12c1.4-2.449,3.3-5.687,5.444-9.279Z" transform="translate(-63.441 -262.565)" fill="url(#b)"></path></g><path d="M360.772,271.3V248.716H350.487v.763h3.646V271.3l-3.646,0c-3.972,0-4.6-.378-4.979-.6a2.173,2.173,0,0,1-.87-.9,4.025,4.025,0,0,1-.409-1.279A9.886,9.886,0,0,1,344.12,267V249.535h3.646v-.763H344.12v-4.591h-6.639v21.35q0,.979.109,2.121a4.134,4.134,0,0,0,.844,2.124,5.377,5.377,0,0,0,2.286,1.633,11.58,11.58,0,0,0,4.335.651l19.363,0V271.3Z" transform="translate(-213.899 -236.397)" fill="#161615"></path></g><g transform="translate(69.364 271.536)"><path d="M76.576,326.016h.892v5.462h3.378v.774h-4.27Z" transform="translate(-76.576 -325.943)" fill="#161615"></path><path d="M108.571,330.695h-3.317l-.685,1.557h-.918l2.826-6.236h.881l2.834,6.236h-.935Zm-.313-.713-1.344-3.058-1.347,3.058Z" transform="translate(-91.441 -325.943)" fill="#161615"></path><path d="M141.386,326.016v6.236h-.728l-3.744-4.651v4.651h-.892v-6.236h.731l3.743,4.652v-4.652Z" transform="translate(-109.214 -325.943)" fill="#161615"></path><path d="M171.585,329.009h.855v2.434a3.339,3.339,0,0,1-1.079.588,4.026,4.026,0,0,1-1.283.206,3.494,3.494,0,0,1-1.7-.415,3.067,3.067,0,0,1-1.19-1.142,3.311,3.311,0,0,1,0-3.274,3.024,3.024,0,0,1,1.194-1.142,3.577,3.577,0,0,1,1.716-.409,3.653,3.653,0,0,1,1.357.244,2.825,2.825,0,0,1,1.039.717l-.552.552a2.518,2.518,0,0,0-1.81-.722,2.637,2.637,0,0,0-1.279.309,2.269,2.269,0,0,0-.888.854,2.527,2.527,0,0,0,0,2.461,2.3,2.3,0,0,0,.888.862,2.6,2.6,0,0,0,1.27.311,2.649,2.649,0,0,0,1.462-.4Z" transform="translate(-126.087 -325.855)" fill="#161615"></path><path d="M199.13,331.612a2.82,2.82,0,0,1-.694-2.049v-3.548h.889v3.511q0,2.006,1.756,2.005a1.7,1.7,0,0,0,1.311-.494,2.177,2.177,0,0,0,.455-1.511v-3.511h.864v3.548a2.815,2.815,0,0,1-.7,2.053,3.008,3.008,0,0,1-3.885,0Z" transform="translate(-143.482 -325.943)" fill="#161615"></path><path d="M232.522,330.695h-3.315l-.685,1.557H227.6l2.826-6.236h.881l2.835,6.236h-.935Zm-.311-.713-1.347-3.058-1.344,3.058Z" transform="translate(-159.496 -325.943)" fill="#161615"></path><path d="M263.48,329.009h.855v2.434a3.339,3.339,0,0,1-1.079.588,4.024,4.024,0,0,1-1.283.206,3.492,3.492,0,0,1-1.7-.415,3.065,3.065,0,0,1-1.19-1.142,3.311,3.311,0,0,1,0-3.274,3.024,3.024,0,0,1,1.194-1.142,3.584,3.584,0,0,1,1.716-.409,3.652,3.652,0,0,1,1.357.244,2.789,2.789,0,0,1,1.039.717l-.552.552a2.517,2.517,0,0,0-1.81-.722,2.644,2.644,0,0,0-1.279.309,2.284,2.284,0,0,0-.888.854,2.527,2.527,0,0,0,0,2.461,2.313,2.313,0,0,0,.888.862,2.609,2.609,0,0,0,1.27.311,2.638,2.638,0,0,0,1.462-.4Z" transform="translate(-176.541 -325.855)" fill="#161615"></path><path d="M295.371,331.478v.774h-4.529v-6.236h4.4v.774h-3.511v1.917h3.128v.757h-3.128v2.014Z" transform="translate(-194.216 -325.943)" fill="#161615"></path><path d="M330.476,332.018a2.806,2.806,0,0,1-1.031-.566l.331-.694a2.722,2.722,0,0,0,.913.52,3.372,3.372,0,0,0,1.145.2,2.054,2.054,0,0,0,1.159-.262.813.813,0,0,0,.383-.7.685.685,0,0,0-.209-.52,1.373,1.373,0,0,0-.517-.307,9.007,9.007,0,0,0-.868-.241,9.042,9.042,0,0,1-1.135-.337,1.9,1.9,0,0,1-.742-.522,1.4,1.4,0,0,1-.307-.949,1.588,1.588,0,0,1,.263-.9,1.794,1.794,0,0,1,.8-.644,3.26,3.26,0,0,1,1.327-.24,4.206,4.206,0,0,1,1.088.144,2.837,2.837,0,0,1,.918.409l-.293.714a3.167,3.167,0,0,0-.837-.379,3.116,3.116,0,0,0-.875-.13,1.912,1.912,0,0,0-1.135.276.847.847,0,0,0-.378.713.673.673,0,0,0,.213.52,1.475,1.475,0,0,0,.531.313,8.276,8.276,0,0,0,.859.235,8.657,8.657,0,0,1,1.131.339,1.921,1.921,0,0,1,.735.518,1.352,1.352,0,0,1,.309.935,1.6,1.6,0,0,1-.267.9,1.8,1.8,0,0,1-.812.641,3.363,3.363,0,0,1-1.338.237A4.274,4.274,0,0,1,330.476,332.018Z" transform="translate(-215.411 -325.855)" fill="#161615"></path><path d="M359.279,331.823a3.044,3.044,0,0,1-1.181-1.142,3.333,3.333,0,0,1,0-3.269,3.045,3.045,0,0,1,1.186-1.142,3.485,3.485,0,0,1,1.692-.414,3.581,3.581,0,0,1,1.338.244,2.773,2.773,0,0,1,1.033.727l-.578.561a2.334,2.334,0,0,0-1.758-.74,2.53,2.53,0,0,0-1.255.314,2.271,2.271,0,0,0-.878.861,2.536,2.536,0,0,0,0,2.449,2.272,2.272,0,0,0,.878.862,2.557,2.557,0,0,0,1.255.311,2.333,2.333,0,0,0,1.758-.75l.578.561a2.754,2.754,0,0,1-1.038.731,3.5,3.5,0,0,1-1.342.252A3.444,3.444,0,0,1,359.279,331.823Z" transform="translate(-230.907 -325.855)" fill="#161615"></path><path d="M394.258,326.016v6.236h-.892v-2.78h-3.583v2.78h-.892v-6.236h.892V328.7h3.583v-2.682Z" transform="translate(-248.049 -325.943)" fill="#161615"></path><path d="M421.246,331.823a3.067,3.067,0,0,1-1.19-1.147,3.287,3.287,0,0,1,0-3.261,3.085,3.085,0,0,1,1.19-1.146,3.691,3.691,0,0,1,3.4,0,3.06,3.06,0,0,1,1.186,1.142,3.346,3.346,0,0,1,0,3.269,3.041,3.041,0,0,1-1.186,1.142,3.681,3.681,0,0,1-3.4,0Zm2.936-.69a2.29,2.29,0,0,0,.864-.862,2.518,2.518,0,0,0,0-2.449,2.289,2.289,0,0,0-.864-.861,2.442,2.442,0,0,0-1.235-.314,2.492,2.492,0,0,0-1.242.314,2.278,2.278,0,0,0-.874.861,2.533,2.533,0,0,0,0,2.449,2.279,2.279,0,0,0,.874.862,2.518,2.518,0,0,0,1.242.311A2.468,2.468,0,0,0,424.182,331.133Z" transform="translate(-264.922 -325.855)" fill="#161615"></path><path d="M452.834,331.823a3.061,3.061,0,0,1-1.188-1.147,3.287,3.287,0,0,1,0-3.261,3.078,3.078,0,0,1,1.188-1.146,3.692,3.692,0,0,1,3.4,0,3.044,3.044,0,0,1,1.186,1.142,3.333,3.333,0,0,1,0,3.269,3.026,3.026,0,0,1-1.186,1.142,3.682,3.682,0,0,1-3.4,0Zm2.936-.69a2.28,2.28,0,0,0,.866-.862,2.533,2.533,0,0,0,0-2.449,2.279,2.279,0,0,0-.866-.861,2.432,2.432,0,0,0-1.233-.314,2.5,2.5,0,0,0-1.244.314,2.282,2.282,0,0,0-.872.861,2.521,2.521,0,0,0,0,2.449,2.283,2.283,0,0,0,.872.862,2.525,2.525,0,0,0,1.244.311A2.458,2.458,0,0,0,455.77,331.133Z" transform="translate(-282.266 -325.855)" fill="#161615"></path><path d="M484.747,326.016h.892v5.462h3.378v.774h-4.27Z" transform="translate(-300.677 -325.943)" fill="#161615"></path></g></g></svg> 