<?xml version="1.0" encoding="UTF-8"?>
<!DOCTYPE svg PUBLIC "-//W3C//DTD SVG 1.1//EN" "http://www.w3.org/Graphics/SVG/1.1/DTD/svg11.dtd">
<!-- Creator: CorelDRAW X7 -->
<svg xmlns="http://www.w3.org/2000/svg" xml:space="preserve" width="150mm" height="150mm" version="1.1" style="shape-rendering:geometricPrecision; text-rendering:geometricPrecision; image-rendering:optimizeQuality; fill-rule:evenodd; clip-rule:evenodd"
viewBox="0 0 15000 15000"
 xmlns:xlink="http://www.w3.org/1999/xlink">
 <defs>
  <style type="text/css">
   <![CDATA[
    .fil3 {fill:#2B2A29;fill-rule:nonzero}
    .fil2 {fill:url(#id0)}
    .fil0 {fill:url(#id1)}
    .fil1 {fill:url(#id2)}
   ]]>
  </style>
  <linearGradient id="id0" gradientUnits="userSpaceOnUse" x1="2110.76" y1="8581.22" x2="6014.25" y2="8581.22">
   <stop offset="0" style="stop-opacity:1; stop-color:#1066FC"/>
   <stop offset="0.541176" style="stop-opacity:1; stop-color:#1233B3"/>
   <stop offset="1" style="stop-opacity:1; stop-color:#150069"/>
  </linearGradient>
  <linearGradient id="id1" gradientUnits="userSpaceOnUse" x1="2101.83" y1="7088.08" x2="12693" y2="7088.08">
   <stop offset="0" style="stop-opacity:1; stop-color:#1B8DF2"/>
   <stop offset="0.45098" style="stop-opacity:1; stop-color:#2347E3"/>
   <stop offset="1" style="stop-opacity:1; stop-color:#2B00D4"/>
  </linearGradient>
  <linearGradient id="id2" gradientUnits="userSpaceOnUse" x1="8766.22" y1="5571.07" x2="12688.9" y2="5571.07">
   <stop offset="0" style="stop-opacity:1; stop-color:#041885"/>
   <stop offset="0.00392157" style="stop-opacity:1; stop-color:#123AB6"/>
   <stop offset="0.0117647" style="stop-opacity:1; stop-color:#150671"/>
   <stop offset="1" style="stop-opacity:1; stop-color:#205DE8"/>
  </linearGradient>
 </defs>
 <g id="Слой_x0020_1">
  <metadata id="CorelCorpID_0Corel-Layer"/>
  <path class="fil0" d="M3602 10817c-829,0 -1500,-672 -1500,-1500 0,-219 42,-417 127,-605l2145 -4487 12 -26c244,-497 755,-840 1347,-840 495,0 933,240 1206,609l1830 2460 1082 -2240c247,-491 755,-829 1342,-829 828,0 1500,672 1500,1500 0,246 -59,477 -163,681l-2106 4361c-228,536 -761,915 -1382,916 -495,1 -923,-225 -1196,-594l-1832 -2475c-523,1094 -1046,3069 -2412,3069z"/>
  <path class="fil1" d="M11914 6826l612 -1282c104,-204 163,-435 163,-681 0,-828 -672,-1500 -1500,-1500 -587,0 -1083,314 -1330,805l-1093 2260 474 642c265,426 736,709 1274,709 666,0 1124,-373 1400,-953z"/>
  <path class="fil2" d="M2974 7171c237,-516 727,-810 1332,-810 534,0 988,256 1254,675l454 712 0 0 -637 1462 -269 511 -96 155 -157 201c-331,482 -703,717 -1244,724 -829,12 -1500,-671 -1500,-1500 0,-219 47,-427 131,-614l732 -1516z"/>
  <path class="fil3" d="M2701 11516l130 0 82 240 82 -240 131 0 -124 330 92 232 206 -564 153 0 -296 726 -118 0 -126 -305 -126 305 -119 0 -293 -726 151 0 207 564 90 -232 -122 -330zm1331 600l0 124 -504 0 0 -726 495 0 0 124 -354 0 0 174 306 0 0 115 -306 0 0 189 363 0zm696 -63c0,31 -6,58 -19,81 -12,23 -29,42 -50,58 -22,16 -47,28 -75,36 -28,8 -58,12 -90,12l-351 0 0 -726 388 0c26,0 48,5 69,16 20,11 38,25 52,43 14,17 26,37 33,59 8,22 12,44 12,67 0,35 -9,69 -26,100 -18,31 -44,54 -78,69 41,12 74,34 99,66 24,31 36,71 36,119zm-142 -27c0,-13 -3,-25 -7,-37 -4,-12 -10,-22 -18,-31 -7,-9 -16,-16 -27,-21 -10,-5 -21,-8 -33,-8l-217 0 0 191 210 0c13,0 25,-2 36,-7 11,-5 21,-11 29,-20 8,-8 15,-18 19,-30 5,-11 8,-24 8,-37zm-302 -392l0 184 188 0c24,0 44,-9 61,-25 17,-16 25,-39 25,-68 0,-27 -8,-50 -23,-66 -15,-16 -34,-25 -57,-25l-194 0zm800 606l0 -726 264 0c59,0 111,9 156,28 45,19 82,45 112,78 30,33 52,71 67,115 15,44 23,91 23,141 0,55 -8,105 -25,150 -17,44 -41,83 -72,114 -32,32 -69,57 -113,74 -44,17 -94,26 -148,26l-264 0zm480 -364c0,-35 -5,-67 -15,-96 -9,-30 -23,-55 -42,-76 -18,-21 -41,-38 -68,-49 -27,-12 -57,-17 -91,-17l-123 0 0 478 123 0c35,0 65,-6 92,-18 27,-12 50,-29 68,-51 18,-21 32,-47 41,-76 10,-29 15,-61 15,-95zm757 240l0 124 -505 0 0 -726 496 0 0 124 -354 0 0 174 305 0 0 115 -305 0 0 189 363 0zm185 -602l196 549 195 -549 148 0 -283 726 -119 0 -285 -726 148 0zm1121 602l0 124 -504 0 0 -726 495 0 0 124 -354 0 0 174 306 0 0 115 -306 0 0 189 363 0zm111 124l0 -726 141 0 0 602 370 0 0 124 -511 0zm861 5c-53,0 -101,-10 -145,-31 -43,-21 -80,-48 -111,-83 -31,-34 -55,-74 -72,-118 -17,-44 -26,-90 -26,-136 0,-49 9,-95 27,-139 18,-45 43,-84 75,-118 32,-34 69,-61 113,-81 44,-20 91,-30 142,-30 53,0 101,10 144,32 43,21 80,49 111,84 31,35 54,75 72,119 17,44 25,89 25,135 0,48 -9,95 -26,139 -18,44 -43,82 -74,116 -32,34 -69,61 -113,81 -43,20 -91,30 -142,30zm-211 -368c0,31 5,62 15,91 9,29 23,55 41,78 18,22 40,40 67,54 26,14 56,20 89,20 34,0 64,-7 91,-21 26,-14 48,-32 66,-55 18,-24 32,-50 41,-79 9,-29 14,-58 14,-88 0,-31 -5,-62 -15,-91 -10,-29 -24,-55 -42,-78 -18,-22 -40,-40 -66,-54 -27,-13 -56,-20 -89,-20 -34,0 -64,7 -91,21 -27,14 -49,33 -66,56 -18,23 -32,48 -41,77 -9,29 -14,59 -14,89zm675 363l0 -726 307 0c34,0 65,7 93,21 28,14 53,32 73,55 21,23 37,49 48,78 12,29 18,58 18,87 0,31 -6,61 -17,90 -11,29 -26,54 -46,77 -19,22 -43,41 -71,54 -28,14 -59,21 -92,21l-172 0 0 243 -141 0zm141 -367l163 0c26,0 48,-11 65,-32 18,-21 26,-50 26,-86 0,-18 -2,-35 -8,-49 -5,-15 -12,-28 -21,-38 -9,-10 -19,-18 -31,-23 -12,-5 -24,-7 -37,-7l-157 0 0 235zm1088 367l0 -481 -187 358 -77 0 -187 -358 0 481 -141 0 0 -726 151 0 215 413 217 -413 150 0 0 726 -141 0zm797 -124l0 124 -504 0 0 -726 495 0 0 124 -354 0 0 174 306 0 0 115 -306 0 0 189 363 0zm252 -341l0 465 -141 0 0 -726 109 0 379 476 0 -475 141 0 0 725 -115 0 -373 -465zm1183 -137l-233 0 0 602 -140 0 0 -602 -232 0 0 -124 605 0 0 124z"/>
 </g>
</svg>
