<svg xmlns="http://www.w3.org/2000/svg" xmlns:xlink="http://www.w3.org/1999/xlink" viewBox="0 0 311.84 279.2"><defs><style>.cls-1{opacity:0;fill:url(#linear-gradient);}.cls-2{fill:#d4d4f9;}.cls-3{fill:#adadd8;}</style><linearGradient id="linear-gradient" x1="45.32" y1="66.4" x2="676.68" y2="484.26" gradientUnits="userSpaceOnUse"><stop offset="0" stop-color="#2d2c33"/><stop offset="1" stop-color="#54535b"/></linearGradient></defs><title>1</title><g id="Слой_2" data-name="Слой 2"><g id="body"><g id="_1" data-name="1"><rect class="cls-1" width="311.84" height="279.2"/><g id="_Группа_" data-name="&lt;Группа&gt;"><path id="_Контур_" data-name="&lt;Контур&gt;" class="cls-2" d="M103.42,160.88a9.35,9.35,0,0,0-3.19-3.49Q98,156,96.9,156.58l-2.63,1.7,1.6,3A9.66,9.66,0,0,0,97,164.46a10.37,10.37,0,0,0,2,2.49l1.85,3.43,2.63-1.69c.76-.43,1.15-1.48,1.15-3.14A9.94,9.94,0,0,0,103.42,160.88Z"/><path id="_Составной_контур_" data-name="&lt;Составной контур&gt;" class="cls-3" d="M93.12,161.46c0-1.7.38-2.76,1.15-3.18s1.87-.15,3.33.81a9.43,9.43,0,0,1,3.19,3.49,9.9,9.9,0,0,1,1.11,4.67c0,1.66-.38,2.7-1.14,3.13s-1.82.2-3.16-.68a10,10,0,0,1-3.28-3.55A9.54,9.54,0,0,1,93.12,161.46Z"/></g><g id="_Группа_2" data-name="&lt;Группа&gt;"><g id="_Группа_3" data-name="&lt;Группа&gt;"><polygon id="_Контур_2" data-name="&lt;Контур&gt;" class="cls-2" points="79.03 117.7 76.39 119.4 75.42 128.44 67.58 151.78 72.56 155.06 72.22 158.27 74.85 156.57 86.3 122.5 79.03 117.7"/><path id="_Составной_контур_2" data-name="&lt;Составной контур&gt;" class="cls-3" d="M83.66,124.19,72.21,158.27,65,153.48,76.4,119.4Z"/></g><g id="_Группа_4" data-name="&lt;Группа&gt;"><polygon id="_Контур_3" data-name="&lt;Контур&gt;" class="cls-2" points="91.02 125.47 88.39 127.17 87.42 136.2 79.57 159.55 84.55 162.83 84.21 166.04 86.84 164.34 98.29 130.26 91.02 125.47"/><path id="_Составной_контур_3" data-name="&lt;Составной контур&gt;" class="cls-3" d="M95.66,132,84.21,166l-7.27-4.79,11.45-34.08Z"/></g></g></g></g></g></svg>