<?xml version="1.0" ?><!DOCTYPE svg  PUBLIC '-//W3C//DTD SVG 1.1//EN'  'http://www.w3.org/Graphics/SVG/1.1/DTD/svg11.dtd'><svg viewBox="0 0 548.358 548.358" xmlns="http://www.w3.org/2000/svg" xmlns:xlink="http://www.w3.org/1999/xlink"><style>:root>svg{display:none}:root>svg:target{display:block}</style><svg viewBox="0 0 512 512" id="github" xmlns="http://www.w3.org/2000/svg"><path d="M258.6 507.2C120.3 507.7 6.5 392.6 9.9 251.7 13.1 117.8 124.1 7.1 262.1 8.7c136.7 1.6 249.5 115.4 246 255.8C504.8 398 394.7 508 258.6 507.2zM230 387.7c-12.2-3.9-24.6-6.8-36-11.9-23.2-10.4-37.9-28.4-42.6-53.7-3-16.4-1.8-32.9.2-49.3 1.8-14.5 6-28 17-38.5.8-.8.9-3.1.4-4.3-5.3-14.5-4.7-29-.4-43.7 1.3-4.4 3.4-4.9 7.2-3.7 10 3.1 18.1 9.1 25 16.7 3.7 4 7 8.4 10.5 12.6 20.8-13.5 80.3-13.5 102.1-.2 4.2-4.9 8.2-10 12.7-14.7 6.7-6.9 14.5-12.2 24-14.8 3.1-.9 4.8-.2 5.9 3.1 4.9 14.5 5.8 29 0 43.5-1.1 2.9-1 4.8 1.3 7 6.9 6.6 11.1 14.9 13.3 24.2 4.2 17.3 5.1 35 3.9 52.6-1.3 18.9-8.4 35.5-22.3 48.8-11.7 11.1-25.7 17.7-41.1 21.6-5.6 1.4-11.2 2.4-17.2 3.6 7.7 11.8 9.6 24.6 9.3 38-.3 14.3-.1 28.7-.1 43 0 1.7.1 3.5.2 5.3 91.3-16.6 183.5-107.5 173.4-233.4C467.2 119.4 360.9 27.2 237.9 39 123 50 30.8 152.5 41.2 276.7c9.9 117.5 105.1 187.9 179.6 197.1v-25.6c-4.1.6-7.8 1.1-11.4 1.5-26.8 3-48.1-9-60-32.9-6.5-13.1-13.4-26.2-26.2-34.6-1.4-.9-2.2-2.6-3.4-4.1 1.1-.8 1.6-1.2 2.2-1.5.8-.3 1.6-.4 2.4-.5 9-.6 17.5 1 24.2 7.3 4.4 4.1 8.4 9 11.7 14.1 12.6 19.7 34.3 28 56.4 21.4 3-.9 4.7-2.2 5-5.7.6-9.4 3.2-18.3 8.3-25.5z"/></svg><svg viewBox="0 0 17 17" id="inst" xmlns="http://www.w3.org/2000/svg"><path d="M13.668 4.785a.927.927 0 11-1.853 0 .927.927 0 011.853 0zm2.94 4.18v.012l-.053 3.356a4.632 4.632 0 01-4.579 4.58l-3.368.052h-.012l-3.356-.053a4.632 4.632 0 01-4.58-4.579L.608 8.965v-.012l.053-3.356a4.632 4.632 0 014.58-4.58L8.607.965h.012l3.356.053a4.632 4.632 0 014.58 4.58l.052 3.367zm-1.49 0l-.052-3.345a3.15 3.15 0 00-3.113-3.113l-3.345-.052-3.345.052A3.149 3.149 0 002.15 5.62l-.052 3.345.052 3.345a3.15 3.15 0 003.113 3.113l3.345.052 3.345-.052a3.15 3.15 0 003.113-3.113l.052-3.345zm-2.402 0a4.108 4.108 0 11-8.216 0 4.108 4.108 0 018.216 0zm-1.49 0a2.618 2.618 0 10-5.235 0 2.618 2.618 0 005.235 0z"/></svg><svg viewBox="0 0 46.412 46.412" id="marker" xmlns="http://www.w3.org/2000/svg"><path d="M39.652 16.446C39.652 7.363 32.289 0 23.206 0 14.124 0 6.761 7.363 6.761 16.446c0 1.775.285 3.484.806 5.086 0 0 1.384 6.212 15.536 24.742 8.103-10.611 12.018-17.178 13.885-20.857a16.377 16.377 0 002.664-8.971zM23.024 27.044c-5.752 0-10.416-4.663-10.416-10.416 0-5.752 4.664-10.415 10.416-10.415S33.44 10.876 33.44 16.628c-.001 5.753-4.664 10.416-10.416 10.416zM23.206 46.412l-.105-.139-.106.139h.211z"/></svg><svg viewBox="0 0 312.999 312.999" id="moon" xmlns="http://www.w3.org/2000/svg"><path d="M305.6 178.053c-3.2-.8-6.4 0-9.2 2-10.4 8.8-22.4 16-35.6 20.8-12.4 4.8-26 7.2-40.4 7.2-32.4 0-62-13.2-83.2-34.4-21.2-21.2-34.4-50.8-34.4-83.2 0-13.6 2.4-26.8 6.4-38.8 4.4-12.8 10.8-24.4 19.2-34.4 3.6-4.4 2.8-10.8-1.6-14.4-2.8-2-6-2.8-9.2-2-34 9.2-63.6 29.6-84.8 56.8-20.4 26.8-32.8 60-32.8 96.4 0 43.6 17.6 83.2 46.4 112s68.4 46.4 112 46.4c36.8 0 70.8-12.8 98-34 27.6-21.6 47.6-52.4 56-87.6 2-6-1.2-11.6-6.8-12.8zm-61.2 83.6c-23.2 18.4-52.8 29.6-85.2 29.6-38 0-72.4-15.6-97.2-40.4-24.8-24.8-40.4-59.2-40.4-97.2 0-31.6 10.4-60.4 28.4-83.6 12.4-16 28-29.2 46-38.4-2 4.4-4 8.8-5.6 13.6-5.2 14.4-7.6 29.6-7.6 45.6 0 38 15.6 72.8 40.4 97.6s59.6 40.4 97.6 40.4c16.8 0 32.8-2.8 47.6-8.4 5.2-2 10.4-4 15.2-6.4-9.6 18.4-22.8 34.8-39.2 47.6z"/></svg><svg viewBox="0 0 302.4 302.4" id="sun" xmlns="http://www.w3.org/2000/svg"><path d="M204.8 97.6C191.2 84 172 75.2 151.2 75.2s-40 8.4-53.6 22.4c-13.6 13.6-22.4 32.8-22.4 53.6s8.8 40 22.4 53.6c13.6 13.6 32.8 22.4 53.6 22.4s40-8.4 53.6-22.4c13.6-13.6 22.4-32.8 22.4-53.6s-8.4-40-22.4-53.6zm-14.4 92.8c-10 10-24 16-39.2 16s-29.2-6-39.2-16-16-24-16-39.2 6-29.2 16-39.2 24-16 39.2-16 29.2 6 39.2 16 16 24 16 39.2-6 29.2-16 39.2zM292 140.8h-30.8c-5.6 0-10.4 4.8-10.4 10.4 0 5.6 4.8 10.4 10.4 10.4H292c5.6 0 10.4-4.8 10.4-10.4 0-5.6-4.8-10.4-10.4-10.4zM151.2 250.8c-5.6 0-10.4 4.8-10.4 10.4V292c0 5.6 4.8 10.4 10.4 10.4 5.6 0 10.4-4.8 10.4-10.4v-30.8c0-5.6-4.8-10.4-10.4-10.4zM258 243.6l-22-22c-3.6-4-10.4-4-14.4 0s-4 10.4 0 14.4l22 22c4 4 10.4 4 14.4 0s4-10.4 0-14.4zM151.2 0c-5.6 0-10.4 4.8-10.4 10.4v30.8c0 5.6 4.8 10.4 10.4 10.4 5.6 0 10.4-4.8 10.4-10.4V10.4c0-5.6-4.8-10.4-10.4-10.4zM258.4 44.4c-4-4-10.4-4-14.4 0l-22 22c-4 4-4 10.4 0 14.4 3.6 4 10.4 4 14.4 0l22-22c4-4 4-10.4 0-14.4zM41.2 140.8H10.4c-5.6 0-10.4 4.8-10.4 10.4s4.4 10.4 10.4 10.4h30.8c5.6 0 10.4-4.8 10.4-10.4 0-5.6-4.8-10.4-10.4-10.4zM80.4 221.6c-3.6-4-10.4-4-14.4 0l-22 22c-4 4-4 10.4 0 14.4s10.4 4 14.4 0l22-22c4-4 4-10.4 0-14.4zM80.4 66.4l-22-22c-4-4-10.4-4-14.4 0s-4 10.4 0 14.4l22 22c4 4 10.4 4 14.4 0s4-10.4 0-14.4z"/></svg><svg viewBox="0 0 548.358 548.358" id="vk" xmlns="http://www.w3.org/2000/svg"><path d="M545.451 400.298c-.664-1.431-1.283-2.618-1.858-3.569-9.514-17.135-27.695-38.167-54.532-63.102l-.567-.571-.284-.28-.287-.287h-.288c-12.18-11.611-19.893-19.418-23.123-23.415-5.91-7.614-7.234-15.321-4.004-23.13 2.282-5.9 10.854-18.36 25.696-37.397 7.807-10.089 13.99-18.175 18.556-24.267 32.931-43.78 47.208-71.756 42.828-83.939l-1.701-2.847c-1.143-1.714-4.093-3.282-8.846-4.712-4.764-1.427-10.853-1.663-18.278-.712l-82.224.568c-1.332-.472-3.234-.428-5.712.144l-3.713.859-1.431.715-1.136.859c-.952.568-1.999 1.567-3.142 2.995-1.137 1.423-2.088 3.093-2.848 4.996-8.952 23.031-19.13 44.444-30.553 64.238-7.043 11.803-13.511 22.032-19.418 30.693-5.899 8.658-10.848 15.037-14.842 19.126-4 4.093-7.61 7.372-10.852 9.849-3.237 2.478-5.708 3.525-7.419 3.142-1.715-.383-3.33-.763-4.859-1.143-2.663-1.714-4.805-4.045-6.42-6.995-1.622-2.95-2.714-6.663-3.285-11.136-.568-4.476-.904-8.326-1-11.563-.089-3.233-.048-7.806.145-13.706.198-5.903.287-9.897.287-11.991 0-7.234.141-15.085.424-23.555.288-8.47.521-15.181.716-20.125.194-4.949.284-10.185.284-15.705s-.336-9.849-1-12.991a44.442 44.442 0 00-2.99-9.137c-1.335-2.95-3.289-5.232-5.853-6.852-2.569-1.618-5.763-2.902-9.564-3.856-10.089-2.283-22.936-3.518-38.547-3.71-35.401-.38-58.148 1.906-68.236 6.855-3.997 2.091-7.614 4.948-10.848 8.562-3.427 4.189-3.905 6.475-1.431 6.851 11.422 1.711 19.508 5.804 24.267 12.275l1.715 3.429c1.334 2.474 2.666 6.854 3.999 13.134 1.331 6.28 2.19 13.227 2.568 20.837.95 13.897.95 25.793 0 35.689-.953 9.9-1.853 17.607-2.712 23.127-.859 5.52-2.143 9.993-3.855 13.418-1.715 3.426-2.856 5.52-3.428 6.28-.571.76-1.047 1.239-1.425 1.427a21.387 21.387 0 01-7.71 1.431c-2.667 0-5.901-1.334-9.707-4-3.805-2.666-7.754-6.328-11.847-10.992-4.093-4.665-8.709-11.184-13.85-19.558-5.137-8.374-10.467-18.271-15.987-29.691l-4.567-8.282c-2.855-5.328-6.755-13.086-11.704-23.267-4.952-10.185-9.329-20.037-13.134-29.554-1.521-3.997-3.806-7.04-6.851-9.134l-1.429-.859c-.95-.76-2.475-1.567-4.567-2.427a30.301 30.301 0 00-6.567-1.854l-78.229.568c-7.994 0-13.418 1.811-16.274 5.428l-1.143 1.711c-.571.953-.859 2.475-.859 4.57 0 2.094.571 4.664 1.714 7.707 11.42 26.84 23.839 52.725 37.257 77.659 13.418 24.934 25.078 45.019 34.973 60.237 9.897 15.229 19.985 29.602 30.264 43.112 10.279 13.515 17.083 22.176 20.412 25.981 3.333 3.812 5.951 6.662 7.854 8.565l7.139 6.851c4.568 4.569 11.276 10.041 20.127 16.416 8.853 6.379 18.654 12.659 29.408 18.85 10.756 6.181 23.269 11.225 37.546 15.126 14.275 3.905 28.169 5.472 41.684 4.716h32.834c6.659-.575 11.704-2.669 15.133-6.283l1.136-1.431c.764-1.136 1.479-2.901 2.139-5.276.668-2.379 1-5 1-7.851-.195-8.183.428-15.558 1.852-22.124 1.423-6.564 3.045-11.513 4.859-14.846 1.813-3.33 3.859-6.14 6.136-8.418 2.282-2.283 3.908-3.666 4.862-4.142.948-.479 1.705-.804 2.276-.999 4.568-1.522 9.944-.048 16.136 4.429 6.187 4.473 11.99 9.996 17.418 16.56 5.425 6.57 11.943 13.941 19.555 22.124 7.617 8.186 14.277 14.271 19.985 18.274l5.708 3.426c3.812 2.286 8.761 4.38 14.853 6.283 6.081 1.902 11.409 2.378 15.984 1.427l73.087-1.14c7.229 0 12.854-1.197 16.844-3.572 3.998-2.379 6.373-5 7.139-7.851.764-2.854.805-6.092.145-9.712-.677-3.611-1.344-6.136-2.008-7.563z"/></svg></svg>