<svg xmlns="http://www.w3.org/2000/svg" xmlns:xlink="http://www.w3.org/1999/xlink" viewBox="0 0 311.84 279.2"><defs><style>.cls-1{opacity:0;fill:url(#linear-gradient);}.cls-2{fill:#d4d4f9;}.cls-3{fill:#adadd8;}</style><linearGradient id="linear-gradient" x1="45.32" y1="66.4" x2="676.68" y2="484.26" gradientUnits="userSpaceOnUse"><stop offset="0" stop-color="#2d2c33"/><stop offset="1" stop-color="#54535b"/></linearGradient></defs><title>17</title><g id="Слой_2" data-name="Слой 2"><g id="body"><g id="_17" data-name="17"><rect class="cls-1" width="311.84" height="279.2"/><g id="_Группа_" data-name="&lt;Группа&gt;"><g id="_Группа_2" data-name="&lt;Группа&gt;"><polygon id="_Контур_" data-name="&lt;Контур&gt;" class="cls-2" points="194.1 9.92 196.73 8.22 196.73 0 175.49 0.01 172.86 1.71 175.49 2.73 175.49 4.78 194.1 27.93 194.1 32.91 196.73 31.21 196.73 23.04 183.71 7.48 188.48 7.75 194.1 9.92"/><path id="_Составной_контур_" data-name="&lt;Составной контур&gt;" class="cls-3" d="M194.1,32.91,172.86,6.48V1.71H194.1V9.92l-13-.74,13,15.56Z"/></g><g id="_Группа_3" data-name="&lt;Группа&gt;"><polygon id="_Контур_2" data-name="&lt;Контур&gt;" class="cls-2" points="209.99 3.81 207.35 5.51 206.38 14.54 198.54 37.89 203.52 41.17 203.17 44.38 205.81 42.68 217.25 8.6 209.99 3.81"/><path id="_Составной_контур_2" data-name="&lt;Составной контур&gt;" class="cls-3" d="M214.62,10.3,203.17,44.37l-7.27-4.79L207.35,5.51Z"/></g><g id="_Группа_4" data-name="&lt;Группа&gt;"><polygon id="_Контур_3" data-name="&lt;Контур&gt;" class="cls-2" points="218.85 14.58 216.22 16.28 218.85 22.81 231.87 39.23 218.85 37.62 216.22 39.32 218.85 41.66 218.85 45.79 236.24 47.07 237.45 49.05 240.09 47.36 240.09 42.59 218.85 14.58"/><path id="_Составной_контур_3" data-name="&lt;Составной контур&gt;" class="cls-3" d="M216.22,39.32l13,1.61-13-16.43V16.28l21.23,28v4.77l-21.23-1.57Z"/></g></g><g id="_Группа_5" data-name="&lt;Группа&gt;"><g id="_Группа_6" data-name="&lt;Группа&gt;"><path id="_Контур_4" data-name="&lt;Контур&gt;" class="cls-2" d="M262.33,70.86a9.2,9.2,0,0,0-3.19-3.49q-2.19-1.44-3.33-.81l-2.63,1.69,1.6,3a9.51,9.51,0,0,0,1.08,3.18,10.18,10.18,0,0,0,2,2.49l1.85,3.44,2.63-1.7c.77-.43,1.15-1.48,1.15-3.14A9.75,9.75,0,0,0,262.33,70.86Z"/><path id="_Составной_контур_4" data-name="&lt;Составной контур&gt;" class="cls-3" d="M252,71.43c0-1.7.38-2.76,1.15-3.18s1.87-.15,3.33.81a9.43,9.43,0,0,1,3.19,3.49,9.93,9.93,0,0,1,1.11,4.67c0,1.66-.38,2.71-1.14,3.14s-1.82.2-3.16-.69a9.86,9.86,0,0,1-3.28-3.54A9.58,9.58,0,0,1,252,71.43Z"/></g><g id="_Группа_7" data-name="&lt;Группа&gt;"><path id="_Контур_5" data-name="&lt;Контур&gt;" class="cls-2" d="M274.65,78.7a9.28,9.28,0,0,0-3.19-3.49q-2.19-1.44-3.33-.81l-2.64,1.7,1.61,3a9.51,9.51,0,0,0,1.08,3.18,10,10,0,0,0,2,2.49L272,88.2l2.64-1.7c.76-.43,1.14-1.47,1.14-3.14A9.89,9.89,0,0,0,274.65,78.7Z"/><path id="_Составной_контур_5" data-name="&lt;Составной контур&gt;" class="cls-3" d="M264.35,79.27c0-1.69.38-2.75,1.14-3.17s1.88-.15,3.33.81A9.31,9.31,0,0,1,272,80.4a9.86,9.86,0,0,1,1.11,4.66c0,1.66-.38,2.71-1.15,3.14s-1.81.2-3.16-.69A9.83,9.83,0,0,1,265.55,84,9.58,9.58,0,0,1,264.35,79.27Z"/></g><g id="_Группа_8" data-name="&lt;Группа&gt;"><path id="_Контур_6" data-name="&lt;Контур&gt;" class="cls-2" d="M287.2,87.33A9.35,9.35,0,0,0,284,83.84q-2.19-1.44-3.33-.81l-2.63,1.7,1.6,3a9.53,9.53,0,0,0,1.08,3.17,10,10,0,0,0,2,2.5l1.84,3.43,2.63-1.69c.77-.43,1.15-1.48,1.15-3.14A9.79,9.79,0,0,0,287.2,87.33Z"/><path id="_Составной_контур_6" data-name="&lt;Составной контур&gt;" class="cls-3" d="M276.9,87.91c0-1.7.38-2.76,1.15-3.18s1.87-.15,3.33.81A9.35,9.35,0,0,1,284.57,89a9.9,9.9,0,0,1,1.11,4.67c0,1.66-.38,2.7-1.14,3.13s-1.82.2-3.16-.68a10,10,0,0,1-3.28-3.55A9.54,9.54,0,0,1,276.9,87.91Z"/></g></g></g></g></g></svg>